<?xml version="1.0" encoding="utf-8"?>
<!-- Generator: Adobe Illustrator 26.0.1, SVG Export Plug-In . SVG Version: 6.00 Build 0)  -->
<svg version="1.1" id="Layer_1" xmlns="http://www.w3.org/2000/svg" xmlns:xlink="http://www.w3.org/1999/xlink" x="0px" y="0px"
	 viewBox="0 0 220 122" style="enable-background:new 0 0 220 122;" xml:space="preserve">
<style type="text/css">
	.st0{fill:#00CA61;}
</style>
<desc>Created with Sketch.</desc>
<g>
	<g>
		<path class="st0" d="M9,36.8c-0.9-0.7-1.9-1-3-0.9l-5.7,1v29.8L6,66.6c4-0.1,6.8-6.7,6.8-16C12.8,44,11.4,38.8,9,36.8z M5.8,61.5
			L3,61.6V41.5l2.8-0.4C6.4,41,7,41.2,7.5,41.6C9,43,9.9,46.4,9.9,50.9l0,0l0,0l0,0C10,56.1,8.7,61.4,5.8,61.5z"/>
		<path class="st0" d="M27.8,66.2l3.5-0.1l-6.1-33.3l-4,0.7l-5.6,33l3.2-0.1l1.1-7l6.6-0.3L27.8,66.2z M20.8,54L20.8,54l2.4-14.2
			l2.4,13.9L20.8,54z"/>
		<polygon class="st0" points="53.6,65.6 53.6,28 49.7,28.6 49.7,55 39.9,30.3 35.8,31 35.8,66 39.3,65.9 39.3,40.7 49.1,65.7 		"/>
		<polygon class="st0" points="80.6,65 85.6,64.9 85.6,22.6 79.9,23.6 72.8,39.9 66,25.9 61,26.7 61,65.4 65.4,65.3 65.4,37.1 
			72.7,52.5 80.6,35.2 		"/>
		<path class="st0" d="M110.5,18.4l-7.6,1.3l-10.3,45l6-0.1l2.1-9.5l12.2-0.6l2.4,9.8l6.9-0.1L110.5,18.4z M102.3,47.8L102.3,47.8
			l4.3-19.2l4.5,18.5L102.3,47.8z"/>
		<path class="st0" d="M144.4,43.9l9.3,19.6l9.7-0.2l-11.1-21.7h0.1c5.2-2.8,8.3-9.1,8-16.5c-0.2-6.1-3.5-11.2-8-12.5
			c-1.8-0.5-3.7-0.5-6.3-0.1l-15.4,2.6V64l7-0.2V44.4L144.4,43.9L144.4,43.9z M137.6,22.3l7.8-1.1c2.1-0.3,3.7,0,4.8,1
			s1.8,2.6,1.8,4.8l0,0c0.1,2.5-0.7,4.6-2.1,6.1c-1.1,1.1-2.6,1.9-4.1,2.1l-8.3,0.9V22.3H137.6z"/>
		<polygon class="st0" points="205.4,62.3 219.2,62 196.9,27.6 196.9,27.5 217.7,0.5 203.4,2.8 183.6,29.9 183.6,6.2 174.4,7.7 
			174.4,63 183.6,62.8 183.6,45 189.9,37 		"/>
	</g>
	<g>
		<polygon class="st0" points="0.4,75.5 0.4,122.2 8.2,121.1 8.2,88.5 19.9,105.8 30.9,87.3 30.9,118.1 37.4,117.2 37.4,74.9 30,75 
			19.9,91.7 9.2,75.4 		"/>
		<path class="st0" d="M62.2,73.5c-4.9,0.2-8.7,2.4-11.4,6.6c-2.4,3.8-3.6,9.1-3.6,15.3c0,7.8,2,13.8,5.8,17.1
			c2.5,2.1,5.6,2.9,9.2,2.4c4.4-0.6,8-3.1,10.5-7.3c2.3-3.8,3.5-8.8,3.5-14.3c0-7.2-2-13.2-5.5-16.6c-2.2-2.1-4.9-3.2-8.1-3.2
			C62.5,73.5,62.3,73.5,62.2,73.5z M67.1,81.9c2.3,2.2,3.6,6.5,3.6,11.7c0,3.9-0.7,7.3-2,9.9c-1.4,2.8-3.6,4.4-6.3,4.7
			c-0.3,0-0.6,0.1-0.9,0.1c-1.6,0-3-0.5-4.2-1.6c-2.4-2.1-3.7-6.3-3.7-11.8c0-4.2,0.7-7.8,2.1-10.3c1.5-2.8,3.8-4.3,6.7-4.4
			C64.2,80.1,65.8,80.7,67.1,81.9z"/>
		<path class="st0" d="M83.9,111l10.1-1.4c6.5-0.9,10.8-8.4,10.7-18.6c0-6.4-1.7-11.7-4.7-14.6c-1.7-1.7-3.7-2.5-6.1-2.4l-10.2,0.2
			V111H83.9z M88.8,80.1l4.8-0.2c1.4-0.1,2.6,0.4,3.6,1.4c2,1.9,3.1,5.5,3.1,10l0,0l0,0l0,0c0,3.2-0.6,6.2-1.7,8.4
			c-1.2,2.4-2.9,3.8-5.1,4l-4.9,0.6V80.1H88.8z"/>
		<polygon class="st0" points="117.8,73.6 117.8,106.5 121.6,105.9 121.6,82.6 127.6,95.2 133.3,82 133.3,104.4 136.7,103.9 
			136.7,73.3 132.8,73.3 127.6,85.3 122.1,73.5 		"/>
		<path class="st0" d="M147,73.1l-5.9,30.2l3.4-0.5l1.2-6.4l6.4-0.7l1.1,6l3-0.4L150.9,73L147,73.1z M146.6,91.6l2.4-12.7l2.3,12.2
			L146.6,91.6z"/>
		<path class="st0" d="M160.1,100.8l5.8-0.8c3.8-0.5,6.3-6.2,6.3-14.1c0-5.5-1.2-9.8-3.3-11.9c-0.9-0.9-1.9-1.3-3-1.3l-5.9,0.1
			L160.1,100.8L160.1,100.8z M162.8,77.4l2.9-0.1c0.7,0,1.3,0.2,1.8,0.7c1.4,1.3,2.2,4.3,2.2,8.1l0,0l0,0l0,0c0,5.4-1.5,9.1-4,9.4
			l-2.9,0.3V77.4L162.8,77.4z"/>
		<path class="st0" d="M180.4,82.6c-1.8-0.5-2.2-1.4-2.2-2.9c-0.1-2.1,1.2-3.3,2.5-3.4c1.2,0,2.2,0.8,2.9,2.5l1.7-3
			c-1.2-2.7-2.8-4-4.9-3.8c-2.8,0.2-4.7,3.5-4.7,8c0,4,1.3,5.6,2.2,6.4c0.6,0.5,1.3,0.7,2.1,1c0.2,0,0.4,0.1,0.5,0.1
			c1.4,0.3,2.8,0.6,2.7,3.1c-0.1,3.1-1.9,3.7-2.7,3.7c-0.1,0-0.2,0-0.3,0c-1.5,0-2.5-1.6-3.3-3l-1.8,3.4c1.7,3.1,3.3,4.3,5.4,4
			c2.4-0.3,4.8-3.3,4.8-8.5c0-2.8-0.5-4.7-1.6-5.9C183,83.3,181.8,82.9,180.4,82.6z"/>
		<path class="st0" d="M193.4,72.4l-4.5,0.1V97l2-0.3v-8.9l2.5-0.2c2.1-0.2,3.5-3.5,3.5-8.1l0,0c0-2.8-0.7-5.3-1.9-6.4
			C194.5,72.6,193.9,72.3,193.4,72.4z M194.3,82.9c-0.5,0.7-1,0.7-1.4,0.7l-1.9,0.1v-7.2l1.9-0.1c0.4,0,1,0,1.4,0.6
			c0,0,0.7,0.9,0.7,2.8C194.9,81.1,194.7,82.1,194.3,82.9z"/>
		<polygon class="st0" points="199.7,95.5 201.6,95.3 201.6,72.2 199.7,72.2 		"/>
		<polygon class="st0" points="206.7,72.1 204.9,72.2 204.9,94.8 210.6,94 210.6,90.3 206.7,90.7 		"/>
		<path class="st0" d="M217.9,72.6c-0.5-0.5-1-0.7-1.5-0.7l-3.5,0.1v21.7l3.5-0.5c1.2-0.2,2.1-1.3,2.8-3.4c0.7-2,1-4.6,1-7.6
			C220.2,77.7,219.3,74.1,217.9,72.6z M216.2,89.8l-1.8,0.2V75.5l1.8-0.1c0.3,0,0.7,0.1,1,0.4c1,0.9,1.5,3.4,1.5,6.6
			C218.7,86.8,217.7,89.6,216.2,89.8z"/>
	</g>
</g>
</svg>
